<?xml version="1.0" encoding="utf-8"?>
<!-- Generator: Adobe Illustrator 19.0.0, SVG Export Plug-In . SVG Version: 6.00 Build 0)  -->
<svg version="1.1"
	 id="svg1327" xmlns:sodipodi="http://inkscape.sourceforge.net/DTD/sodipodi-0.dtd" xmlns:rdf="http://www.w3.org/1999/02/22-rdf-syntax-ns#" xmlns:dc="http://purl.org/dc/elements/1.1/" xmlns:cc="http://web.resource.org/cc/" xmlns:inkscape="http://www.inkscape.org/namespaces/inkscape" xmlns:svg="http://www.w3.org/2000/svg" sodipodi:version="0.32" inkscape:version="0.43" sodipodi:docbase="C:\foo\wikipedia\transfer" sodipodi:docname="swinging-corpse-silhouette.svg"
	 xmlns="http://www.w3.org/2000/svg" xmlns:xlink="http://www.w3.org/1999/xlink" x="0px" y="0px" viewBox="-185 -358 479 1042"
	 style="enable-background:new -185 -358 479 1042;" xml:space="preserve">
<sodipodi:namedview  inkscape:cx="372.04724" inkscape:zoom="0.35824168" borderopacity="1.0" inkscape:cy="414.52463" id="base" pagecolor="#ffffff" bordercolor="#666666" inkscape:window-x="-4" inkscape:window-width="1024" inkscape:window-y="-4" inkscape:pageopacity="0.0" inkscape:window-height="721" inkscape:current-layer="svg1327" inkscape:pageshadow="2">
	</sodipodi:namedview>
<path id="path1336_2_" d="M76,57.7c1.7-0.7,0.1,0.6,1.2,0.2c0.5-0.2,0.9-0.4,0.9-0.5c0-0.3,2.1-1.5,2.7-1.5c0.3,0,0.8-0.1,1.1-0.2
	c0.3-0.1,1.2-0.4,2-0.5c0.8-0.2,1.6-0.5,1.8-0.7c0.2-0.2,0.8-0.4,1.4-0.5c0.5-0.1,1.6-0.4,2.3-0.7c0.7-0.3,1.8-0.7,2.3-0.7
	c0.5-0.1,1.2-0.3,1.6-0.6c0.5-0.3,1.5-0.5,3.9-0.6c1.8-0.1,4.4-0.3,5.7-0.4c1.3-0.1,3.5-0.3,4.9-0.5c1.4-0.1,3.2-0.4,4-0.6
	c1.2-0.3,2.7-0.4,8.1-0.4c7.3,0,8,0.1,10.4,1.7c1,0.7,1.4,0.8,3,0.8c2.3,0,3.9,0.6,4.6,1.8c0.9,1.3,2.1,2.5,2.8,2.7
	c0.3,0.1,1.4,0.3,2.3,0.6s1.9,0.6,2.2,0.6c0.5,0.1,1,0.9,1.4,2.2c0.1,0.2,0.3,0.5,0.5,0.5c2.2,0.6,2.7,0.8,3.3,1.4
	c0.4,0.4,1,1.4,1.4,2.2c0.6,1.4,0.9,1.6,2,2.2c1.5,0.8,1.7,1,2,3.1c0.5,2.8,2.3,6.9,4.3,9.9c0.2,0.3,1,1.5,1.6,2.6
	c1.4,2.2,2.5,3.7,4.1,5.4c0.6,0.6,1.2,1.6,1.5,2.1c0.7,1.6,0.4,7.9-0.5,12.4c-0.2,1-0.5,3.4-0.6,5.2c-0.1,2-0.4,3.6-0.6,4.1
	c-0.2,0.4-0.4,1-0.4,1.3s-0.2,1.2-0.5,2s-0.7,2.3-0.9,3.3c-0.8,4.2-2.4,7.9-4.9,11c-0.5,0.6-0.8,1.3-0.8,1.7s-0.5,2-1,3.7
	c-0.6,1.6-1,3.3-1,3.7c0,0.4-0.3,1.5-0.8,2.4c-0.4,0.9-0.8,2.1-0.8,2.7c0,1.3-0.3,1.8-1.6,2.7c-1.3,1-2.4,1-3.4,0.1
	c-1.4-1.3-1.6-2-1.6-8.6v-5.9l-1.6-1.6c-0.9-0.9-2.1-1.8-2.7-2.1c-1.6-0.7-1.8-1.3-1.8-6c0-2.1-0.1-4.1-0.3-4.3
	c-0.1-0.3-0.3-1-0.3-1.6c0-0.6-0.1-1.2-0.2-1.3c-0.1-0.1-0.8,0.2-1.4,0.6l-1.2,0.7l-0.1,1.6c-0.2,1.9-0.7,3.2-1.6,4
	c-0.6,0.5-1,0.5-3.7,0.5h-3l-0.9,0.8c-0.7,0.7-1.2,0.9-2.4,1c-0.8,0.1-1.7,0.1-2.1,0c-0.5-0.1-0.7,0-0.9,0.6c-0.4,1.1-2.2,2-4,2
	c-1.1,0-1.3,0.1-1.5,0.6c-0.3,0.9-1.3,2.1-1.7,2.3c-0.2,0.1-1.2,0.3-2.2,0.4c-2,0.2-2.6,0.6-3.3,2c-0.4,0.9-1.6,1.8-3.1,2.4
	c-0.9,0.4-2.8,0.4-4.5,0c-1.3-0.3-1.3-0.3-2,0.5c-0.7,0.8-0.8,0.8-2.6,0.8c-1.5,0-2-0.1-2.5-0.5c-0.8-0.6-0.9-0.6-1.5,0
	c-2.3,2.3-4.1,2.6-6.2,1.1c-1.1-0.8-1.8-0.8-1.4-0.1c0.3,0.4-0.4,2.1-1.6,3.9c-1.1,1.6-1.1,1.8-1.1,3.2c0,0.8,0.3,2.1,0.5,2.9
	c0.3,0.8,0.5,2.1,0.5,2.9c0,1.1,0.1,1.5,0.5,1.9c0.3,0.3,0.5,0.7,0.5,1s0.2,1.2,0.5,2s0.5,1.9,0.5,2.4c0,0.9,0.9,2.9,1.9,4.4
	c0.4,0.5,0.5,1.2,0.6,2.7c0,1.1,0.2,2.8,0.4,3.7c0.2,0.9,0.6,3.3,0.8,5.3c0.2,2,0.6,4,0.8,4.4c0.2,0.5,0.4,1.6,0.5,2.6
	s0.3,2,0.4,2.3c0.2,0.4,0.1,0.8-0.2,1.4c-0.6,1.1-0.5,2.1,0.3,2.9c0.4,0.5,0.7,1.2,0.8,2c0.1,0.7,0.3,1.4,0.5,1.6
	c0.2,0.2,0.5,1,0.6,1.6c0.2,1.1,1,3.6,4.1,12.2c0.6,1.7,1.3,3.8,1.5,4.5c0.2,0.8,0.6,1.8,0.9,2.3s0.6,1.1,0.6,1.3s0.2,0.6,0.4,0.9
	c0.3,0.4,0.4,1.4,0.5,4c0.2,5.8,0.9,9.6,2.6,12.4c0.3,0.5,0.6,1.6,0.8,2.5c0.5,2.8,0.6,3,1.3,3.5c1.9,1.3,3,6.8,1.7,8.2
	c-0.3,0.3-0.7,0.9-0.8,1.2c-0.4,1-2.5,2.4-6.2,4.3c-3.5,1.8-4.4,2.4-4.8,3.3c-0.1,0.3-1,1.1-2,1.7c-1,0.6-1.9,1.4-2,1.8
	c-0.1,0.4-0.5,0.9-0.8,1.3c-0.5,0.7-1,1.5-3.5,6.3c-0.4,0.9-1,2.2-1.1,3c-0.5,2-0.7,9.5-0.3,10.2c0.2,0.3,0.2,0.8,0.1,1.3
	c-0.1,0.4-0.2,1.7-0.2,2.9c0,2.1-0.3,3.5-0.9,4.3c-0.2,0.3-0.2,1.2-0.1,3.4c0.1,1.7,0.2,3.8,0.3,4.7c0,1.4,0.1,1.8,0.7,2.3
	c0.7,0.6,0.8,1.1,1.1,6.2c0.1,1.3,0.3,2.5,0.4,2.7c0.3,0.4,0.8,2.2,1.7,6.8c0.7,3.2,0.8,4.3,0.8,7.3c0,3.2-0.1,3.8-0.8,6.8
	c-0.7,2.7-0.9,4-1.1,7.8c-0.1,2.5-0.2,6.2-0.2,8.3c0.1,3.4,0,3.9-0.5,5.3c-0.3,0.8-1.1,2.3-1.8,3.1c-0.7,0.9-1.9,2.6-2.6,3.7
	c-1.9,2.7-2,2.8-3.8,2.9c-2.5,0-4.2,0.5-4.4,1.2c-0.3,0.9-1.1,1.2-1.6,0.6c-0.3-0.3-0.7-0.5-1.1-0.4c-0.5,0.1-0.6,0.2-0.6,0.7
	c0,0.3-0.1,0.9-0.3,1.2c-0.2,0.3-0.4,0.8-0.4,1.2c0,0.3-0.2,0.8-0.4,1.1c-0.3,0.4-0.3,0.8-0.2,1.6c0.1,0.7,0,1.4-0.3,2.1
	c-0.2,0.7-0.3,1.3-0.2,1.4c0.1,0.2,0.2,3.4,0.2,7.1s0.1,7.4,0.1,8.2c0,0.8,0,2.5-0.1,3.9c-0.1,1.8,0,2.7,0.2,3.2
	c0.4,0.8,0.4,2.2,0,3.1c-0.2,0.5-0.2,0.7,0.1,1.2c0.5,0.8,0.5,3.7,0,4.9c-0.3,0.6-0.3,1.3-0.2,2.3c0.1,0.9,0,2.3-0.3,3.7
	c-0.2,1.2-0.6,4.4-0.9,6.9c-0.3,2.6-0.6,5.5-0.7,6.5s-0.4,3.4-0.6,5.2c-0.6,5.1-1.2,9.5-1.4,10.5c-0.1,0.5-0.5,1.2-0.9,1.6
	c-0.3,0.4-0.6,0.9-0.6,1.1s-0.3,0.7-0.7,1.1c-0.8,0.8-1.6,2.8-1.5,3.7c0.1,0.5,0.3,0.6,1.6,0.7c0.9,0.1,1.9,0.3,2.3,0.4
	c1.1,0.4,3.3,0.8,4.5,0.8c1.4,0,2,0.3,2.5,1.3c0.2,0.5,0.8,1.1,1.8,1.7c1.4,0.8,1.5,0.8,3.3,0.7c1.7-0.2,2-0.1,3.1,0.5
	c1.4,0.7,2.3,1.7,2.3,2.5c0,1-0.9,1.4-4.4,2c-3.7,0.7-5.6,1.6-7,3.5c-0.6,0.9-0.7,1.2-0.7,2.8c0,2.4-0.5,4-1.9,6.6
	c-1.4,2.7-1.8,4-2.1,6.9c-0.1,1.2-0.4,3-0.8,4c-0.5,1.5-0.6,2.4-0.7,5.4c-0.2,5-0.3,5.5-2.5,7.9c-1.9,2-4.4,6.2-4.4,7.3
	c0,0.8-1.5,5.7-2.1,6.9c-0.3,0.6-0.7,1.8-0.7,2.6c-0.1,0.8-0.4,2.6-0.7,4c-0.4,2.1-0.5,2.7-0.2,4c0.2,0.8,0.2,3.2,0.2,5.2
	c-0.1,3.9-0.1,4.1-1.8,6.7c-1.1,1.7-1.6,4-1.9,8.9c-0.3,4.7-0.2,6.1,0.5,8.4c0.4,1.4,0.7,1.8,2,3s2.2,1.7,5.5,3.1
	c0.6,0.2,1,0.7,1.4,1.7c0.4,0.7,1.4,2.4,2.3,3.6c2.3,3.2,2.7,3.6,3,3.6c0.4,0,1.2,0.8,1.2,1.3c0,0.2,0.3,0.6,0.7,0.8
	c1,0.6,1.6,1.4,1.6,2c0,0.4,0.3,0.8,1,1.2c0.5,0.3,1.2,0.9,1.4,1.3c0.3,0.4,0.9,1.1,1.4,1.7c0.5,0.5,0.9,1.2,0.9,1.4
	c0,0.2,0.5,0.8,1,1.3c0.6,0.5,1,1.2,1,1.5s0.3,0.7,0.8,0.9c0.4,0.2,1,0.7,1.2,1.1c0.5,0.9,2.6,2.3,4.2,2.9c1.2,0.4,1.6,0.4,6,0
	c1.2-0.1,1.6-0.1,2.8,0.5c0.7,0.3,1.9,0.9,2.6,1.2c0.7,0.3,1.7,0.9,2.1,1.2c0.4,0.3,1.4,1,2.1,1.3c2.9,1.4,5.9,3.2,8.1,4.8
	s2.3,1.7,2.6,3.1c0.3,1.2,0.3,1.8,0,3.3c-0.5,2.6-0.5,2.6-2.5,2.8c-1.5,0.1-1.8,0.3-2.2,0.8c-0.5,0.8-1,0.8-1.7,0l-0.6-0.7h-4.6
	c-3.4,0-4.8,0.1-5.5,0.3c-0.7,0.3-0.9,0.3-1.4,0.1c-0.6-0.3-3.9-0.2-9.9,0.3c-3.5,0.3-4.8,0.2-7.2-0.5c-0.4-0.1-0.7-0.1-0.7,0
	c0,0.6,0.5,1.5,1,1.6c0.4,0.1,0.5,0.3,0.5,0.8c-0.1,0.6,0,0.7,0.8,0.9c1.2,0.2,3.2,1.6,3.7,2.5c0.2,0.4,0.5,0.7,0.6,0.7
	s0.6,0.3,0.9,0.7c0.4,0.4,1.7,1.3,2.9,2c2.1,1.2,4.1,2.4,7.1,4.5c1.9,1.3,3.5,3.8,3.9,5.9c0.4,2.1,0.2,2.6-1.2,4.3
	c-1.3,1.6-1.8,1.8-4.6,2.2c-1,0.1-3.2,0.5-4.7,0.8c-2.5,0.5-3.1,0.5-5.5,0.2c-1.5-0.2-2.8-0.2-2.9-0.1c-0.1,0.1-0.8,0-1.6-0.1
	c-3.5-0.7-5.4-0.8-6.3-0.5s-1.8,0.1-2.2-0.6c-0.1-0.1-1.6-0.4-3.3-0.6c-4.1-0.4-4.3-0.5-4.8-0.7c-0.2-0.1-0.9-0.3-1.6-0.4
	c-2.2-0.3-5-1.1-6.1-1.8c-0.6-0.4-2.4-1-4-1.4c-2.9-0.7-3-0.8-4.1-2c-0.7-0.8-1.5-1.4-2.2-1.6c-1.7-0.6-2.4-1.2-3.8-3.4
	c-0.9-1.5-1.8-2.4-2.9-3.3c-3-2.3-7.7-6.8-8.5-8.2c-1.1-1.9-1.6-2.3-4.4-3c-2.8-0.8-3.8-1.4-5-3.2c-0.4-0.6-1.2-1.7-1.8-2.3
	c-1.4-1.5-1.7-2.5-1.9-5.2c-0.1-1.2-0.4-3.1-0.6-4.2c-0.3-1.4-0.4-2.7-0.3-5c0.1-3.6,0.8-6.1,2.5-9.8c1.3-2.8,1.4-3.3,1-6.1
	c-0.4-2.6-0.6-3.1-2.1-5.3c-1-1.4-1.1-1.6-1.1-3.1c0-1.2,0.2-1.9,0.6-2.8c0.9-1.9,0.8-2.3-0.8-3.7c-1.8-1.6-2.1-2.3-2.1-5
	c0-1.6-0.1-2.2-0.4-2.4c-0.5-0.4-1.4-3.4-1.4-4.8c0-0.6,0.2-1.7,0.4-2.3c0.4-1.2,0.4-2.1-0.3-4.4c-0.4-1.2-0.7-1.7-1.7-2.6
	c-1.1-1-1.2-1.3-1.5-2.8c-0.1-0.9-0.5-2.4-0.7-3.4c-0.3-1-0.7-2.9-1-4.3c-0.6-2.5-1.3-5.4-1.5-5.7c-0.2-0.4-0.8,0.4-0.8,1.2
	c0,0.5-0.3,1.3-0.7,2c-0.6,0.9-1.1,1.4-2.5,2.1c-2.8,1.4-4.9,1.1-5.9-0.7c-0.5-1-0.6-1-2.3-1.3c-2.6-0.4-3.4-1.1-2.8-2.6
	c0.3-0.8,0.6-1,1.7-1c1,0,2-0.9,1.5-1.4c-0.2-0.2-1-0.5-1.8-0.7c-1.9-0.6-2.4-1.1-2.4-2.6c0-1.6,0.5-2.5,2.2-3.5
	c0.8-0.5,1.7-1.2,2-1.5l0.6-0.6l-0.5-1.9c-0.5-2-0.6-5.8-0.2-6.5c0.1-0.2,0.3-1.2,0.4-2.3c0.1-1.1,0.4-2.4,0.7-3.1s0.7-2.1,0.8-3.1
	c0.1-1.1,0.4-2.7,0.7-3.6c0.6-2.1,1.3-10.8,0.8-11.9c-0.3-0.9-0.4-2.4,0-4.3c0.2-0.9,0.2-1.8,0-2.5c-0.4-1.7,0.3-2.4,2.9-3
	c0.7-0.2,2.1-0.6,3.1-0.9c1-0.4,2.8-0.9,4-1.2c3.2-0.9,4.8-1.7,6-3c0.6-0.6,1.1-1.3,1.1-1.6c0-0.2,0.2-0.8,0.5-1.3
	c0.4-0.8,0.5-1.7,0.5-5.3c0-2.4,0.2-4.6,0.3-4.8c0.1-0.2,0.3-1.1,0.5-1.9s0.4-1.8,0.5-2.1s0.2-0.9,0.2-1.3c0-0.7,0.6-2.5,1.1-3.6
	c0.4-0.9,0.3-16-0.2-17.1c-0.6-1.5-0.7-3.1-0.6-11.3c0-1.4-0.1-2.6-0.5-4c-0.6-2.2-1-4.4-1.3-7.7c-0.2-2-0.5-3.2-2.5-8.7
	c-0.3-1-0.8-2-1.1-2.4c-0.4-0.5-0.5-1-0.4-2.4c0-1,0.2-2.2,0.3-2.8c0.2-1,0.2-1.1-0.7-2.3c-0.5-0.7-1-1.7-1.1-2.3
	c-0.2-1.1-0.6-3-0.9-4.5c-0.1-0.6-0.2-1.5-0.2-2.1s-0.1-1-0.3-1c-0.7,0-3,0.8-3.3,1.1c-0.2,0.2-0.7,0.4-1.4,0.4c-1,0-1.2-0.1-1.9-1
	c-0.5-0.6-1.5-1.8-2.3-2.7c-1.3-1.4-1.8-1.7-4-2.6c-1.4-0.5-3-1.3-3.7-1.7s-2.8-1.3-4.7-1.9c-1.9-0.6-3.7-1.3-4-1.5
	c-0.6-0.4-0.8-1.2-0.3-1.5c0.2-0.1,0.5-0.8,0.9-1.5c0.7-1.5,0.6-3.2-0.1-4.6c-0.4-0.8-0.4-0.9,0.4-2.9l0.8-2.1v-5.2v-5.2l-0.7-1
	c-0.4-0.6-0.8-1.6-0.9-2.4c-0.1-0.7-0.4-1.9-0.6-2.5c-0.2-0.6-0.4-1.3-0.4-1.5c0-0.2-0.3-0.6-0.6-0.8c-0.6-0.4-0.6-0.6-0.6-2.2
	c0-1-0.2-2.6-0.4-3.5c-0.3-1.4-0.3-2-0.1-2.9c0.4-1.6,0.4-4.1-0.1-4.3c-0.7-0.3-3.6,2.1-6.1,5c-2.2,2.5-2.6,2.7-4.7,2.7
	c-1,0-2.1-0.1-2.6-0.3c-0.8-0.3-0.9-0.2-2,0.8c-0.7,0.6-1.4,1.2-1.7,1.3s-1,1-1.7,1.9c-1.2,1.6-2.4,2.6-3.3,2.6
	c-0.3,0-0.8-0.3-1.1-0.7c-0.8-0.9-2.5-1.5-4.2-1.5s-2.1-0.5-2.4-2.4c-0.2-1.2-0.4-1.6-1.2-2.5c-0.5-0.6-1.2-1.2-1.4-1.5
	c-0.4-0.4-0.4-0.9-0.4-3v-2.5l1.3-1.6c1.3-1.6,2.1-2.3,5.8-5.8c1.6-1.5,2.2-2.3,3-3.9c0.9-1.8,2-3.5,4.2-6.5
	c0.5-0.6,0.8-1.4,0.8-1.7c0-0.6,1.6-2.7,2.3-3.1c0.8-0.4,0.6-0.8-0.8-1.6c-1.4-0.7-1.9-0.9-1.9-0.5c0,0.5-3.8,4.3-4.4,4.4
	c-0.8,0.2-2.2-0.4-2.8-1.3c-0.2-0.3-1.1-0.9-1.9-1.4c-1.9-0.9-4.2-1-6.3-0.3c-1.2,0.4-1.5,0.4-1.9,0.2c-0.8-0.5-0.7-1.1,0.1-1.9
	c0.8-0.7,1.3-1.6,1.3-2.1c0-0.1-0.5-0.3-1.1-0.3c-2.2,0-2.4-0.5-2.6-6.4c-0.1-3.4,0.1-4.4,1.3-6.3c0.5-0.7,1.1-1.8,1.5-2.5
	c0.4-0.7,1-1.6,1.4-2c0.4-0.5,0.7-0.9,0.7-1c0-0.9,4.2-5.4,5.1-5.4c0.1,0,0.8-0.4,1.6-1c0.7-0.5,2.6-1.9,4.2-2.9
	c2.9-1.9,4-2.9,4.8-4.5c0.4-0.8,1.3-3.8,1.5-5c0.4-2.3,3.1-7,5.4-9.6c0.5-0.6,1.6-2,2.3-3c0.7-1.1,1.8-2.4,2.3-3
	c0.5-0.5,1-1.1,1-1.2s0.6-0.5,1.3-1s2-1.4,2.8-2.2c0.8-0.7,1.9-1.6,2.5-1.8c0.8-0.3,1.4-0.8,1.9-1.6c1-1.5,0.9-1.6-2.7-2.4
	c-2.5-0.5-3.7-2.3-3.8-5.4c-0.1-1.7-0.1-1.8-0.8-1.9c-0.9-0.2-1.6-1.5-1.6-3.1c0-0.6-0.2-1.4-0.4-1.8c-0.6-1.2-0.9-2.7-1-6
	c-0.1-2.3,0-3.2,0.3-4c0.3-0.8,0.3-1.5,0.2-3.6c-0.1-1.6-0.4-2.8-0.6-3.1c-0.3-0.4-0.4-1.1-0.4-2.1c0-2.2,1.2-4.4,4.6-8.8
	c0.4-0.6,1.3-2.1,1.9-3.4c2.5-5.5,4.9-9.1,6-9.1c0.2,0,0.4-0.3,0.6-0.7c0.4-0.9,1.3-1.9,3-3c1.6-1,1.4-0.9,3.4-3.2
	c0.8-1,1.9-2.4,2.4-3.3c0.5-0.8,1.1-1.8,1.4-2.1c0.3-0.3,0.8-1.3,1-2.1s1.1-2.9,2-4.5c1.2-2.4,1.9-3.4,3.4-5
	c1.7-1.8,4.9-4.1,6.4-4.7c1.8-0.7,5.8-3.7,10.2-7.8c1.2-1.1,2.3-2,2.5-2.2c0.2-0.1,1-0.8,1.8-1.4c0.8-0.6,1.8-1.4,2.2-1.7
	c1.1-0.8,3.4-3.7,3.8-4.9c0.2-0.5,0.5-1.1,0.7-1.2c0.2-0.2,0.4-0.4,0.4-0.6c0-0.5,2.3-4,3.6-5.4c0.7-0.8,1.9-2.2,2.8-3.2
	s1.9-2.1,2.4-2.4s0.9-0.8,1-1.2c0.1-0.3,0.2-0.9,0.4-1.2c0.3-0.8,0.3-3.2,0-3.9c-0.9-1.6-3.6-4.7-6-6.7c-0.7-0.6-1.5-1.6-1.8-2.1
	c-1.9-3.8-3-5.3-5.6-8.2c-1-1.1-2.5-2.9-3.4-4s-2.3-2.5-3.1-3c-1.5-1.1-1.9-1.8-1.6-2.9c0.1-0.4,0.4-0.7,0.8-0.8
	c0.4-0.1,1.4-0.4,2.3-0.6c1.8-0.5,5.2-0.7,6-0.2c0.3,0.2,0.8,0.1,1.6-0.3c1.1-0.5,1.5-0.5,9.4-0.4c4.5,0.1,10.4,0.2,13,0.3l12.1-1.9
	l-2.3-3.1l0.2-20.1l0.7-3.7l-1.2-3.4c0-11.9-0.1-23.8-0.1-35.7c1.2-0.9,2.4-1.8,3.5-2.8l1.5-1.1L63-113.9l-1.7-5.2l1.9-0.3L62.8-358
	h11.3v225.7l-0.6,32.7L74.1-44l-0.3,24.5l-0.2,0.8v7.1l-0.2,4.2l2.9,1l2,2.2l0,57.7L76,57.7z"/>
</svg>
