<?xml version="1.0" encoding="utf-8"?>
<!-- Generator: Adobe Illustrator 19.0.0, SVG Export Plug-In . SVG Version: 6.00 Build 0)  -->
<svg version="1.1"
	 id="svg1327" xmlns:rdf="http://www.w3.org/1999/02/22-rdf-syntax-ns#" xmlns:svg="http://www.w3.org/2000/svg" xmlns:cc="http://web.resource.org/cc/" xmlns:sodipodi="http://inkscape.sourceforge.net/DTD/sodipodi-0.dtd" xmlns:dc="http://purl.org/dc/elements/1.1/" xmlns:inkscape="http://www.inkscape.org/namespaces/inkscape" sodipodi:docname="swinging-corpse-silhouette.svg" sodipodi:docbase="C:\foo\wikipedia\transfer" inkscape:version="0.43" sodipodi:version="0.32"
	 xmlns="http://www.w3.org/2000/svg" xmlns:xlink="http://www.w3.org/1999/xlink" x="0px" y="0px" viewBox="-100 -24.9 530 1065"
	 style="enable-background:new -100 -24.9 530 1065;" xml:space="preserve">
<sodipodi:namedview  borderopacity="1.0" pagecolor="#ffffff" bordercolor="#666666" inkscape:cy="414.52463" inkscape:cx="372.04724" inkscape:zoom="0.35824168" id="base" inkscape:current-layer="svg1327" inkscape:window-y="-4" inkscape:window-x="-4" inkscape:pageshadow="2" inkscape:window-height="721" inkscape:pageopacity="0.0" inkscape:window-width="1024">
	</sodipodi:namedview>
<path id="path1336" d="M284.3,43.2l-0.4-0.7L273,42.5c-10,0.1-11,0.1-12.9,0.6c-1.6,0.4-2.5,0.5-3.9,0.4c-1-0.1-6.3-0.3-11.7-0.4
	c-5.4-0.1-10.2-0.3-10.6-0.4c-0.4-0.1-1.7-0.1-2.9,0.1c-1.2,0.2-2.9,0.4-3.9,0.5c-2.1,0.2-5.2,1.6-5.8,2.7c-0.5,0.8-5.6,5.2-6.5,5.7
	c-0.4,0.2-1,0.4-1.4,0.5c-0.4,0.1-1.2,0.9-2.1,2.1c-0.8,1-1.9,2.2-2.4,2.5c-1.3,0.9-3.4,1.9-3.9,1.9c-0.2,0-0.9,0.4-1.5,1
	c-0.6,0.5-1.8,1.4-2.6,2c-1.1,0.8-1.8,1.4-2.3,2.4c-0.6,1.1-1.1,1.5-2.2,2.2c-0.8,0.5-1.6,1-1.7,1.2c-0.4,0.5-3.2,2.5-4.3,3.1
	c-0.5,0.3-1.4,0.9-1.8,1.4c-0.5,0.6-2.1,1.5-3.9,2.4c-1.7,0.8-5.4,3.1-8.2,5c-2.9,1.9-5.5,3.6-5.8,3.7c-0.3,0.1-0.9,0.5-1.2,0.8
	c-0.8,0.7-3.8,2.7-7.7,5c-1.5,0.9-3.1,2.1-3.6,2.6c-0.5,0.5-1,1-1.1,1s-1.5,0.9-3,2c-1.5,1.1-3.7,2.6-4.9,3.3c-1.2,0.7-2.6,1.6-3,2
	c-0.4,0.4-1.5,1-2.3,1.5c-0.9,0.4-1.6,1-1.7,1.3c-0.3,0.8-3.4,3.5-5.1,4.3c-0.9,0.4-1.7,0.9-1.9,1.1c-0.2,0.2-0.9,0.7-1.6,1.2
	s-1.7,1.1-2.1,1.5c-0.4,0.4-1.1,0.8-1.6,0.9c-0.4,0.1-0.9,0.4-1.1,0.6c-0.3,0.4-3.2,2.7-5.6,4.3c-0.7,0.5-2.6,1.6-4.2,2.4
	c-2.2,1.1-3.1,1.8-3.5,2.4c-0.6,0.9-3.4,3-5.4,4c-1,0.5-1.9,1.3-3.5,2.7c-0.4,0.4-1.7,1.2-2.8,1.8c-1.1,0.6-3.1,2-4.4,3.1
	c-1.3,1.1-2.9,2.2-3.6,2.5c-0.7,0.3-1.8,1.1-2.5,1.8c-0.7,0.7-2.1,1.8-3,2.5l-1.6,1.3l-0.2,2.5c-0.1,1.4-0.2,3.5-0.1,4.7
	c0,1.3-0.1,2.8-0.4,3.7c-0.5,2-0.5,2.9,0.1,4.8c0.7,2.3,0.9,5.5,0.4,7.7c-0.5,2.3-0.5,3.8,0,4.6c0.4,0.5,0.4,1.1,0.2,4.8
	c-0.1,2.3-0.2,8.3-0.3,13.3c-0.1,5.5-0.2,9.7-0.4,10.6c-0.2,1-0.3,3.7-0.2,8.4c0.1,6,0,7-0.4,8.2c-0.4,1.1-0.5,2.3-0.5,8.4
	c0,6.1-0.1,7.3-0.5,8.7c-0.6,2-0.6,2.9-0.2,5c0.2,0.9,0.4,4.5,0.4,8c0.1,4.1,0.3,7,0.5,8.1c0.5,2.3,0.5,2.8-0.2,4
	c-0.5,1-0.5,1.2-0.2,3.6c0.2,1.8,0.2,2.8,0,3.4c-0.4,1.3-0.3,2.5,0.3,4.4c0.4,1.4,0.5,2.1,0.4,3.9c-0.1,1.2-0.3,2.7-0.5,3.3
	s-0.4,1.9-0.5,2.8c-0.2,1.4-0.1,1.8,0.5,2.8c0.8,1.5,0.8,1.8,0.1,3.1l-0.5,1l0.6,0.5c1.5,1.2,2.1,4.3,1.2,6.2
	c-0.5,0.9-0.5,1.1-0.1,2.9c0.2,1.1,0.5,2.5,0.8,3.2c0.5,1.5,0.5,2.6,0,3.9c-0.8,2-1,6-0.4,7.1c0.4,0.7,0.4,7,0,8.1
	c-0.2,0.7-0.2,1,0.2,1.6c0.4,0.7,0.4,1,0.1,2.3c-0.7,3.4-0.8,4.6-0.6,6.2c0.2,1.6,0.2,4,0.1,10.5c0,2.3,0.1,3.2,0.4,4
	c0.5,1.1,0.5,2.5,0.1,3.3c-0.4,0.7-0.5,2-0.4,5.3c0,1.4,0,3,0,3.5c0,0.6-0.1,2.5-0.1,4.4c0,1.9-0.2,4.6-0.3,6.1
	c-0.1,1.9-0.1,2.9,0.1,3.6c0.2,0.7,0.3,1.3,0.1,2.5c-0.2,1-0.2,1.9,0,2.5c0.1,0.5,0.2,2,0.2,3.3s-0.1,4.8-0.1,7.8
	c0,5.1-0.1,5.5-0.6,6c-0.5,0.5-0.5,0.9-0.4,4.6c0,2.6-0.1,5-0.3,6.7c-0.2,1.4-0.3,2.7-0.3,2.8c0.1,0.1,0.2,3.1,0.3,6.6
	c0.1,3.5,0.2,7.2,0.3,8.3c0.1,1,0,5.7-0.1,10.5c-0.2,6.6-0.1,9,0.1,10.3c0.2,1.3,0.3,3.5,0.2,8.1c-0.1,3.5-0.1,8.3-0.1,10.8
	c0,2.8-0.1,4.7-0.3,5c-0.2,0.4-0.2,2,0.1,6.1c0.3,4.2,0.3,5.8,0.1,6.3c-0.4,1.1-0.4,34.6,0,36.1c0.2,0.7,0.3,2.6,0.3,5.2
	c0,2.2,0.1,4.5,0.2,4.9c0.3,1.3,0.4,7,0.1,7.5c-0.2,0.4-0.3,5-0.2,15.9c0,1-0.1,3.5-0.2,5.4c-0.3,4.2-0.3,36,0,41.2
	c0.1,2,0.2,6,0.2,8.8s0.2,8,0.3,11.5c0.2,5.1,0.4,15.8,0.3,19.4c0,0.4,0.1,1.3,0.2,1.9c0.4,1.7,0.3,5.3-0.1,7.3
	c-0.3,1.3-0.3,2-0.2,2.9c0.2,0.8,0.2,5.8,0,13.7c-0.3,15.7-0.3,14.1-0.1,21.8l0.1,6.5l2.6,0.2c1.4,0.1,2.7,0.2,2.9,0.2
	c0.2,0,0.6,0.3,1,0.6l0.7,0.6l12.5,0.4c6.9,0.2,13.5,0.5,14.9,0.7c1.3,0.1,8.9,0.3,16.8,0.4c11.5,0.1,14.8,0.2,16.5,0.5
	c1.8,0.3,4.6,0.4,16.8,0.4c12.3,0,14.8,0.1,15.9,0.4c1.1,0.3,6.3,0.4,42.4,0.4c25.8,0,41.6,0.1,42.3,0.2c0.6,0.1,2.7,0.4,4.5,0.5
	c1.9,0.1,4.5,0.4,5.9,0.6c2,0.3,7.4,0.4,27.2,0.6c40.3,0.4,49.9,0.6,51.4,1.1c2.3,0.7,5.8,0.9,18.1,0.9c10.3,0,12.6,0.1,14.1,0.4
	c1,0.2,2.8,0.5,4.1,0.6c1.3,0.1,2.6,0.4,2.9,0.6c0.3,0.2,0.9,0.5,1.3,0.5c0.5,0.1,0.7,0.4,0.9,1c0.1,0.5,0.3,4.7,0.4,9.4
	c0.2,8.5,0.2,8.6-0.4,9.6c-0.4,0.8-0.6,1.6-0.7,3.8c-0.1,2.1-0.3,3.1-0.7,3.9c-0.3,0.6-0.6,1.3-0.6,1.4c0,0.2-0.6,0.8-1.3,1.3
	c-0.7,0.6-1.5,1.3-1.7,1.7c-0.2,0.4-0.8,1-1.3,1.4c-0.5,0.4-1.3,1.1-1.7,1.4L395,732v4.1c0,3.1-0.1,4.4-0.4,5.3
	c-0.6,1.9-0.4,6,0.5,8.6c0.4,1.1,0.9,2.3,1.2,2.8c0.8,1.4,0.5,3.9-0.8,5.4c-0.9,1-1.6,2.5-2,3.7c-0.6,2.5-1.1,4.3-1.4,5
	c-0.3,1-1.3,2.1-2.2,2.6c-0.4,0.2-1,0.9-1.3,1.5c-0.6,1-0.6,1.3-0.6,4.2c0,1.7,0.2,3.5,0.4,3.9c0.2,0.6,0.3,2.6,0.1,7.9
	c-0.1,3.9-0.2,8.8-0.1,10.9c0.1,7.5,0.1,10.9,0.1,12.1c0,0.7,0,2.2,0,3.3s-0.1,2.8-0.3,3.8c-0.3,1.4-0.3,2,0,2.7
	c0.2,0.6,0.2,1.7,0.1,3.2c-0.1,1.3-0.1,2.8,0.1,3.4c0.1,0.6,0.4,1.9,0.6,2.8s0.6,2.1,0.9,2.6c0.6,1,0.6,1,0.1,2.8
	c-0.3,1.4-0.6,2-1.1,2.5c-0.7,0.6-0.7,0.7-0.9,4.4c-0.2,4.1-0.1,5.3,0.6,5.5c2.1,0.7,2.5,1.1,2.5,2.7c0,0.5,0.2,0.8,0.9,1.2
	c0.5,0.3,1,0.8,1,1.1c0.2,0.8,0,2.4-0.5,3.3c-1.4,2.6-2.1,3.8-2.5,4.3c-0.6,0.6-0.4,1.1,0.3,1.1c1.7,0,2.1,2.2,0.8,4.5
	c-1.1,1.9-1.5,3.5-1.5,6c0,1.7-0.1,2.4-0.7,3.9c-1.1,2.8-1.4,4.3-1.2,7.4c0.3,5.1,0.6,9.6,0.9,10.7c0.1,0.6,0.2,4,0.2,7.6
	c0,4.9,0.1,6.6,0.3,6.9c0.2,0.3,0.3,1,0.1,2.7c-0.1,1.3-0.1,3.6-0.1,5.2c0.3,13.9,0.3,13-0.3,13.9c-0.3,0.6-0.5,1.3-0.5,2.2
	c0,1.2-0.1,1.4-1.1,2.6c-0.6,0.7-1.2,1.5-1.3,1.8c-0.1,0.3-0.2,2.9-0.2,5.9l-0.1,5.3l-0.9,0.1c-1.4,0.1-1.7-0.5-1.8-3.8
	c0-1.5-0.1-3.5-0.2-4.3c-0.1-1.3-0.2-1.5-0.7-1.6c-0.3,0-1.1,0.1-1.8,0.4c-1,0.4-1.3,0.4-2,0.1c-0.5-0.2-0.8-0.6-0.9-0.9
	c-0.2-0.8-0.4-0.8-0.8,0.1c-0.2,0.4-0.7,1.2-1.2,2c-0.7,1-2.1,4.3-2.1,4.8c0,0.1,0.4,0.1,0.8,0.1c1.3,0,1.9,0.6,1.9,1.9
	c0,1.2-1.1,3.8-1.7,4.2c-0.6,0.3-0.4,0.9,0.4,1.2c0.8,0.3,1.3,0.9,1.3,1.6c0,0.8-2.2,5.9-3.8,8.9c-0.1,0.2-0.5,1.3-1,2.4
	c-1,2.7-2.7,6.1-3.4,6.7c-0.7,0.7-2.5,0.7-3.2,0c-0.5-0.5-0.5-0.7-0.4-2.5c0.1-1.1,0.3-2.2,0.6-2.5c0.7-1,0.8-1.1,1.3-2.4
	c0.5-1.1,0.5-1.2,0.2-1.5c-0.2-0.2-0.5-0.5-0.6-0.8c-0.2-0.4-0.5-0.5-1.4-0.4c-1.4,0.1-1.9-0.4-1.9-1.6c0-0.8-0.1-0.9-0.4-0.7
	c-0.2,0.1-0.9,0.2-1.5,0.3c-1,0.1-1.1,0.1-1.5-0.8c-0.3-0.7-0.5-0.9-1-0.9c-0.5,0-0.6,0.2-0.7,1.1c-0.1,0.6,0,1.2,0.1,1.4
	c0.2,0.4,0.5,5.2,0.6,10.5c0,1.8,0.2,4,0.4,4.9c0.2,0.9,0.3,3,0.3,4.7c0,2.6-0.1,3.2-0.5,4c-0.3,0.6-0.7,1.4-0.9,1.8
	c-0.7,1.5-2,2.1-3.6,1.7c-0.9-0.2-1.1-1.1-0.9-4.5c0.2-2.7,0.1-3.4-0.2-4c-0.3-0.6-0.4-1.7-0.4-5.3c0-3.8-0.1-4.7-0.5-5.4
	c-0.4-0.8-0.4-1.2-0.3-3.7c0.1-1.5,0.2-3.1,0.2-3.5c-0.1-1,0-5.3,0.1-6.5c0-0.6,0.1-3.2,0.2-5.8c0.1-2.6,0.3-5.1,0.4-5.4
	s0.3-2.8,0.3-5.5c0.4-16.7,0.5-19.9,0.7-20.9c0.1-0.6,0.2-6.5,0.2-13.5c0-7.7,0.1-12.7,0.2-13.2c0.1-0.4,0.2-2.3,0.2-4.3
	c-0.1-2.8-0.2-3.7-0.6-4.6c-0.3-0.6-0.5-1.5-0.5-2.1c0-0.6-0.2-1.1-0.5-1.4c-0.6-0.5-0.6-1.1,0-1.8c0.4-0.4,0.5-1,0.6-3.2
	c0.1-4.7-0.7-14.4-1.1-13.6c-0.1,0.2-0.1,1.1,0,2.1c0.2,2,0,2.6-1.1,3c-1,0.3-1,0.9,0,1.6c1,0.7,1,1.7,0.1,2.8l-0.7,0.8l0.3,2.4
	c0.2,1.3,0.4,3.1,0.6,3.9c0.2,1,0.2,3.5,0.1,7.4c-0.3,9.9-0.4,11.3-0.8,12.1c-0.6,1.1-0.6,9.2-0.1,11c0.3,1.1,0.4,1.9,0.1,5.3
	c-0.2,2.8-0.2,4.3,0,4.9c0.2,0.7,0.2,1.4,0,2.8c-0.1,1-0.3,5.8-0.4,10.7c-0.1,5.7-0.2,9.3-0.4,10.2c-0.2,1-0.3,2.6-0.1,5.7
	c0.1,2.5,0.1,5.8-0.1,7.8c-0.2,1.9-0.3,6.2-0.4,9.6c-0.1,5.2,0,6.1,0.3,6.7c0.4,0.6,0.4,0.8,0.1,1.4c-0.2,0.5-0.4,2.2-0.4,6.5
	c0,5.7,0,5.8,0.5,6.5c0.7,0.9,0.7,1.7,0.1,2.5c-0.5,0.6-0.5,0.7-0.1,1.4c0.5,0.9,1,3.9,0.8,4.6c-0.2,0.8-2.1,2.3-2.8,2.3
	c-1,0-1.9-0.4-2.3-1.2c-0.3-0.6-0.5-0.7-1.3-0.6c-0.7,0.1-1,0.3-1.3,0.8c-0.2,0.4-0.7,0.8-1.1,0.9c-2.7,1-3.8,1-4.2,0.2
	c-0.2-0.5-0.4-0.5-1.8-0.5l-1.5,0.1l-0.1,1.3c0,0.7-0.2,1.4-0.4,1.5c-0.2,0.2-1,0.3-1.8,0.2c-1.3-0.1-1.5-0.1-1.6-0.6
	c-0.1-0.5-0.2-0.6-1.1-0.6c-1.6,0-1.8-0.3-1.8-4.6c0-2.1,0-4.6,0-5.6c0.1-1.7-0.2-2.2-0.6-1.6c-0.2,0.3-0.3,3.8-0.4,9.3
	c0,1.3-0.1,2.5-0.3,2.7c-0.2,0.2-1.1,0.3-2.8,0.3c-2.5,0-2.5,0-2.8-0.7c-0.1-0.4-0.2-1.5-0.2-2.5c0.1-2.3,0.1-2.3-0.5-1.8
	c-0.3,0.3-0.5,0.8-0.5,1.2c0,1.2-0.6,1.6-2.2,1.4c-1.6-0.2-2.6-0.8-2.7-1.6c0-0.3-0.2-0.6-0.5-0.7c-0.2-0.1-0.6-0.6-0.9-1.1
	c-0.6-1.3-0.4-1.7,1.2-1.8c0.9-0.1,1.2-0.2,1.3-0.5c0.1-0.6-0.8-1-2.3-1.1c-1.1,0-1.3-0.1-1.6-0.7c-0.4-0.7-0.4-2.2-0.1-2.4
	c0.1-0.1,0.3-0.3,0.3-0.5c0-0.2-0.3-0.3-1.1-0.3c-1.2,0-4.3-1.5-4.7-2.3c-0.4-0.8-0.3-2.1,0.3-2.8c0.7-0.8,0.6-0.9-0.4-1.3
	c-1.1-0.5-1.3-1.1-1-3.5c0.1-1,0.2-2,0.1-2.2c-0.3-3.9-0.3-5.7,0.1-6.5c0.4-0.7,0.4-0.8,0-1.4c-0.4-0.6-0.5-1.6-0.2-2.1
	c0.1-0.2,0.6-0.5,1.1-0.7c0.8-0.3,0.8-0.4,0.4-0.6c-1.8-0.6-1.6-0.2-1.6-4.7c0-2.5,0.1-4.2,0.3-4.4c0.2-0.2,0.2-0.5,0-0.9
	c-0.4-1-0.3-3,0.1-3.6c0.3-0.3,0.4-1.2,0.4-2.8c0-1.3,0.1-2.4,0.3-2.6c0.2-0.2,0.2-0.4,0-0.8c-0.2-0.4-0.3-3.8-0.3-11
	c0-8.6,0.1-10.6,0.4-11.2c0.2-0.4,0.4-1.1,0.4-1.7c0-0.5,0.2-1.2,0.4-1.5c0.3-0.4,0.4-1.3,0.4-3.9l0-3.5l-1-0.7
	c-1.1-0.7-1.7-1.9-1.4-3.1c0.2-0.8-0.2-1.5-1.3-2.8c-0.8-0.9-0.9-1.4-0.3-2.1l0.5-0.6l-0.6-0.2c-0.3-0.1-1-0.3-1.5-0.4
	c-0.7-0.1-1.2-0.4-2.1-1.5c-0.6-0.7-1.2-1.6-1.3-2c-0.1-0.4-0.5-0.9-1-1.2c-1.1-0.8-1.6-1.4-2.2-2.6c-0.3-0.6-0.8-1.2-1.2-1.5
	c-0.8-0.5-0.8-0.5-2.8-3.2c-0.9-1.2-1.7-2.2-1.8-2.2c-0.2-0.1-3.1-3.7-5.9-7.2c-1-1.2-2.4-3-3.1-3.9c-0.7-0.9-1.5-2.1-1.7-2.5
	c-0.2-0.5-0.5-0.8-0.6-0.8c-0.4,0-1.1-0.8-5.4-6.2c-2.1-2.6-4.5-5.5-5.2-6.4c-0.7-0.9-2.1-2.6-3-3.8c-2.9-3.6-3.8-4.8-4.8-5.9
	c-0.5-0.6-1.2-1.4-1.5-1.8c-0.3-0.4-1.5-1.8-2.5-3.1c-1-1.3-2.2-2.8-2.5-3.2c-0.9-1.3-1.3-1.8-2-2.4c-0.3-0.3-0.8-0.8-1.1-1.1
	c-0.3-0.3-0.7-0.6-0.8-0.6c-0.5,0-2.4-1.9-2.4-2.4c0-0.2-0.7-1.1-1.5-1.9l-1.5-1.5l-50.5,0.1l-50.5,0.1l-0.1,1.5
	c-0.1,1.4-0.2,1.6-1.3,2.8l-1.2,1.3l0.2,6.2c0.3,10.1,0.6,60.7,0.4,65.7c0,0.5,0,2.8,0.1,5.2c0.3,12.8,0.4,24.7,0.2,25.3
	c-0.2,0.4-0.2,1,0,1.8c0.3,1.1,0.2,1.2-0.8,2.9c-1.2,1.9-1.8,2.3-2.9,1.8c-0.6-0.3-0.7-0.2-1.8,0.9c-1.5,1.5-1.5,1.4-1.7,12.5
	l-0.2,8.3l-0.7,0.6c-0.7,0.5-0.7,0.6-0.4,1.4c0.4,1.1,0.4,7.6,0,8.4c-0.2,0.5-0.2,0.9,0.3,1.9c0.6,1.5,0.7,2.8,0.1,4.7l-0.4,1.4
	l-1.6,0.5c-0.9,0.3-1.9,0.7-2.3,0.9c-1.1,0.6-2.6,1.2-3.8,1.5c-1.6,0.3-24.8,0.5-25.9,0.2c-0.5-0.1-1.2-0.3-1.5-0.4
	c-0.3-0.1-1-0.5-1.5-0.9l-0.8-0.8l0.2-2.4l0.2-2.4l-0.7-0.4c-1.2-0.6-1.7-1.3-1.8-2.7c-0.1-0.9,0-1.5,0.4-2.2
	c0.8-1.4,1.1-8.2,1.2-21.4c0-8.1,0.1-11.2,0.4-12.1c0.4-1.5,0.5-11.8,0.1-13c-0.2-0.8-0.6-9.2-0.6-13.2c0.1-7.3,0.2-10.9,0.5-11.6
	c0.2-0.6,0.3-2.1,0.2-6.2c-0.1-3.8-0.1-5.8,0.1-6.7c0.4-1.9,0.3-16-0.2-17.8c-0.2-0.7-0.4-2.4-0.4-3.6c0-2.1-0.1-2.4-0.8-3.7
	l-0.8-1.4l0.1-9.4c0.1-7.1,0.2-9.7,0.4-10.6c0.3-1,0.4-3.1,0.4-8.7l0-7.4l-15.1-0.1l-15.1-0.1l-0.4,0.6c-0.2,0.3-0.4,0.8-0.4,1.1
	c0,0.3-1,1.9-2.3,3.5c-1.2,1.7-2.6,3.5-3,4c-0.4,0.5-1.1,1.4-1.5,2s-0.8,1.1-0.8,1.2c0,0.1-0.6,0.6-1.3,1.1
	c-0.9,0.7-1.3,1.1-1.3,1.5c0,0.3-0.2,0.7-0.4,0.9s-0.9,1.1-1.5,2c-1.6,2.5-3.9,4.8-7,7.1c-3.5,2.6-4.8,3.5-5.1,3.5
	c-0.5,0-6,6.4-7.2,8.4c-0.9,1.5-8.3,8.4-9.8,9.2c-0.8,0.4-1.4,0.9-1.4,1c0,0.1-1.2,1.4-2.6,2.9c-3.1,3.1-2.8,2.9-4.2,4.1
	c-1,0.9-1.1,1.1-1.1,2.2c0,0.9-0.1,1.4-0.6,2.2c-0.8,1.3-1.2,3.2-1.1,6.2c0,3,0.1,29.4,0.1,30.2c0,0.3,0,1.2,0.1,2
	c0.1,0.9,0,1.7-0.3,2.5c-0.2,0.7-0.5,1.8-0.7,2.5c-0.4,1.9-0.6,12.3-0.4,20.3l0.1,7l0.8,0.9c0.4,0.5,0.8,1.1,0.8,1.4
	c0,0.9-0.5,1.8-1.1,2c-0.5,0.2-0.6,0.4-0.6,1c0,0.9-0.6,1.5-1.3,1.5c-0.3,0-0.6,0.2-0.7,0.6c-0.2,0.4-0.5,0.7-1.4,0.9
	c-0.7,0.2-1.3,0.5-1.4,0.8c-0.4,0.7-1.2,1.1-2.4,1.2c-0.8,0.1-1,0.3-1.2,0.8c-0.2,0.5-0.2,0.8,0.1,1.2c0.4,0.7,0.4,1.9-0.1,2.2
	c-0.3,0.3-0.3,0.4,0,1.3c0.4,1.1,0.5,3.7,0.1,4.2c-0.1,0.2-0.6,0.3-1.3,0.3l-1,0v1.7c0,1.9,0.1,2.2,1.5,2.2h0.9l0.1,1.5
	c0.1,1.6-0.2,2.2-1.1,2.2c-0.7,0-1.2,0.5-1.2,1.3c0,1.1,0.7,2.2,1.4,2.3c0.6,0.1,0.7,0.2,0.8,1c0.1,0.9,0,1.1-1.1,1.8
	c-0.5,0.3-0.5,0.4,0.3,0.7c0.6,0.3,0.7,0.5,0.7,1.3c0,1-0.1,1.2-1.5,1.6c-0.6,0.2-0.8,0.4-0.8,1c-0.1,0.9,0.5,1.4,1.5,1.4
	c0.4,0,0.8,0.1,1,0.3c0.4,0.4,0.4,1.6,0.1,1.8c-0.5,0.3-0.2,0.6,0.6,0.6c1.4,0,1.9,1,1,2.2c-0.4,0.5-0.5,0.6-1.8,0.4
	c-0.9-0.1-1.6,0-2,0.2l-0.6,0.3v6.9c0,8.5,0.1,8.2-2.6,8c-1.1-0.1-2-0.1-2.2-0.1c-0.1,0-8.4,0.1-18.3,0.1c-15.5,0.1-18.1,0-18.3-0.3
	c-0.3-0.3-0.3-1.8-0.3-7c0-1.1-0.1-1.8-0.4-2.1c-0.3-0.3-0.4-0.8-0.2-2.2c0.1-1.4,0.1-1.9-0.3-2.7c-0.6-1.2-0.6-1.9,0-3.1
	c0.6-1.2,0.7-2.5,0.1-2.8c-1.2-0.4-1.7-1.5-1-2.5c0.3-0.3,0.3-1.2,0.2-3.6c-0.1-3.1-0.1-3.2,0.5-4c0.8-1,0.8-1.1,0-2
	c-0.4-0.5-0.6-0.9-0.5-1.2c0.3-0.9,0.6-3.4,0.9-5.8c0.1-1.2,0.3-2.5,0.4-2.7c0.1-0.3,0-0.7-0.5-1.2c-0.9-1-1.1-2.3-0.6-3.6
	c0.2-0.6,0.3-1.5,0.3-2c-0.1-0.8-0.3-1-1-1.3c-0.5-0.2-0.9-0.5-1-0.7c-0.3-0.8,0.2-2.2,1-3c0.7-0.6,0.9-1.1,1.2-2.7
	c0.2-1,0.5-2.3,0.6-2.8c0.2-0.7,0.1-1.1-0.1-1.6c-0.3-0.5-0.3-1.2-0.2-2.7c0.1-1.1,0.1-3.9,0.1-6.3c0-3.7-0.1-4.3-0.5-4.9
	c-1.1-1.5-1.3-3.3-0.7-5.5c0.2-0.9,0.3-1.5,0.1-1.8c-0.4-0.7-0.3-3,0.3-9.8c0.3-3.6,0.5-7.7,0.4-9.7c-0.1-2.6,0-3.8,0.3-4.4
	c0.3-0.8,0.3-0.9-0.3-1.5c-0.5-0.5-0.6-0.9-0.5-2.1c0-0.8,0-3.3,0-5.7c0-3.7-0.1-4.4-0.5-5.2c-0.5-0.9-0.5-2-0.5-37
	c0-33.9,0-36.1-0.4-36.4c-0.3-0.2-1.5-0.3-4-0.3c-1.9,0-4.5-0.1-5.8-0.2c-2.8-0.2-3-0.5-2.8-2.7c0.1-0.8,0.1-2.1,0.1-2.9
	c-0.1-1.5,0.4-3,1.4-4.4c0.5-0.8,0.5-0.9,0.2-2.5c-0.3-1.4-0.3-3.7-0.2-12c0.1-5.7,0.2-10.7,0.2-11.1l0.1-0.7l-6.6,0
	c-3.9,0-6.8,0.1-7.3,0.3c-1.1,0.4-4.9,0.3-5.5-0.1c-0.4-0.3-0.9-0.3-1.8-0.1c-2,0.3-3.6,0.3-3.9-0.1c-0.2-0.2-0.7-0.4-1.4-0.4
	c-0.6,0-1.2-0.1-1.4-0.2c-0.4-0.3-0.6-2.7-0.2-3.4c0.2-0.4,0.2-0.5,0-0.6c-0.7-0.3-1.1-0.9-1.1-2c0-0.8,0.1-1.2,0.5-1.4
	c0.3-0.1,0.5-0.5,0.5-0.8s0.2-1,0.4-1.6c0.3-0.8,0.6-1.1,1.1-1.2c0.9-0.2,1.5-0.9,1.4-1.6c-0.1-0.8-1.4-0.9-2.6-0.2
	c-1.1,0.7-2.5,0.7-3.2,0c-0.4-0.4-0.5-0.7-0.4-1.5c0.1-0.5,0.3-1.2,0.6-1.5c0.6-0.6,2-0.9,2.8-0.5c0.5,0.2,1,0.1,3.3-0.7
	c1.5-0.5,3.5-1.4,4.4-1.9c1-0.5,2.3-1.2,3-1.5c0.7-0.3,1.4-0.7,1.6-0.8c0.2-0.1,1.3-0.7,2.5-1.4c1.2-0.6,2.8-1.6,3.5-2.3
	c0.7-0.6,1.8-1.4,2.4-1.7c0.6-0.3,1.5-0.9,2-1.4c1-0.9,2.8-1.6,3.9-1.6c0.4,0,1.8-0.5,3.1-1.2c2.8-1.3,3.6-1.3,4.9-0.2
	c0.6,0.5,0.9,0.6,1.8,0.5c1.9-0.2,2.7-0.5,3-0.8c0.2-0.2,0.6-0.4,0.9-0.4c0.3,0,0.7-0.2,0.9-0.5c0.1-0.3,0.5-0.5,0.8-0.5
	c0.3,0,0.8-0.3,1.1-0.6c0.4-0.5,0.5-0.9,0.5-2.2c0-2.4,0.8-4.6,2-5.4c0.5-0.4,1.2-0.9,1.5-1.3c0.7-0.8,3.5-1.7,6.6-2.2
	c1.3-0.2,2.6-0.5,2.9-0.6c0.5-0.3,2.2-0.7,4.8-1.4c1.9-0.4,3.8-1.4,5.1-2.6c1.2-1.1,3.5-2.3,4.3-2.3c0.3,0,0.7-0.2,1-0.5
	c0.6-0.7,2.4-1.6,3.9-2c0.7-0.2,1.2-0.5,1.2-0.6c0-0.7,1.1-1.6,2.3-2c1.3-0.4,2.6-1.2,4-2.3c0.6-0.5,0.9-0.5,5.6-0.6
	c2.8,0,5.1-0.1,5.4-0.3c0.3-0.1,0.7-0.3,1-0.3c0.3,0,0.6-0.2,0.8-0.5c0.2-0.3,0.5-0.5,0.9-0.5c0.3,0,0.7-0.2,0.9-0.4
	c0.2-0.2,0.6-0.4,0.9-0.4c0.3,0,0.7-0.2,0.9-0.5c0.2-0.3,0.5-0.5,0.9-0.5c0.3,0,0.7-0.2,0.9-0.4c0.2-0.2,0.6-0.4,0.9-0.4
	c0.3,0,0.7-0.2,0.9-0.5c0.1-0.3,0.5-0.5,0.8-0.5c0.3,0,0.7-0.3,0.9-0.8c0.4-0.7,0.4-1.9,0.5-8.9c0-8.1,0.2-10,1-13.5
	c0.3-1.5,0.4-2,0.1-2.5c-1-2.2-1.3-5.4-0.6-8.2c0.3-1.4,0.3-1.5-0.1-2.1c-0.5-0.6-1.4-1.3-2.9-2c-0.8-0.4-0.8-0.4-0.8-2.9
	c-0.1-1.7,0-2.8,0.3-3.5c0.2-0.6,0.4-1.6,0.5-2.4c0.2-1.3,0.7-2.8,1.7-4c0.4-0.6,0.5-1.6,0.5-12.7c0.1-9.5,0-12.4-0.3-13.5
	c-0.3-1.3-0.3-1.5,0.1-2.1c0.4-0.6,0.5-1.1,0.4-4c-0.1-2.7-0.2-3.4-0.6-4.1c-0.7-1.2-0.6-2.8,0.3-4.2c0.8-1.2,0.9-2,0.5-2.8
	c-0.4-0.7-0.8-2.7-1-4.9c-0.2-2.2-0.2-8.3,0-10.3c0.1-0.7,0.2-4.4,0.4-8.3c0.1-3.9,0.3-7.2,0.4-7.4c0.1-0.2,0.2-1.2,0.3-2.1
	c0.4-4.9,0.4-7.3,0.1-10.1c-0.3-3.2-0.2-4.2,0.7-7.5c0.3-1.2,0.6-2.8,0.6-4.2c0-1.8,0-2.3-0.5-3.1c-0.9-1.4-1.2-3.1-1.2-6.8
	c0-1.9-0.2-4.2-0.4-5.3c-0.3-1.7-0.3-2,0.1-3.2c0.4-1.3,0.4-1.3-0.1-2.3c-0.5-0.9-0.5-1.4-0.5-4.6c0-3.4,0.1-3.7,0.7-5.1
	c0.7-1.4,0.7-1.5,0.4-3c-0.2-0.9-0.4-2-0.6-2.4c-0.5-1.1-0.4-2.2,0.1-2.6c0.8-0.7,0.9-1.4,0.2-2.6c-0.7-1.4-0.7-1.8-0.3-2.8
	c0.2-0.5,0.2-0.8-0.1-1.4c-0.4-0.7-0.4-1.4-0.4-6.7c0-3.3,0-7.9,0-10.3s0.1-8.8,0.2-14.2c0.2-8.3,0.3-10.1,0.7-11
	c0.4-1,0.4-1.1-0.2-3c-0.7-2.3-0.8-3.5-0.2-4.8c0.2-0.5,0.5-1.7,0.6-2.6c0.1-1,0.5-2.2,1-3c0.8-1.5,1-3.1,0.4-4.1
	c-0.5-0.7-0.8-2.6-1-5.4c-0.1-1.9-0.1-2.4,0.5-4.2c0.4-1.1,0.9-2.4,1.2-2.9c0.4-0.8,0.5-1.2,0.4-3c-0.1-1.8-0.3-2.5-1.1-4.4
	c-1-2.2-1-2.3-1-5.3c0-2.8-0.1-3.1-0.6-3.7c-0.7-0.8-0.8-2.4-0.2-3.3c0.3-0.5,0.3-0.7,0-2c-0.5-1.8-0.5-4.2,0-6c0.5-1.7,1-5.5,1-7.2
	c0-1.9-0.6-7.5-0.8-8.3c-0.3-1-0.3-9.1,0-10.2c0.3-1.1,0.4-5.8,0.1-8.5c-0.1-1.3-0.1-2.4,0.2-3.7c0.5-2.4,0.5-6.4,0-10.1
	c-0.2-1.5-0.4-4-0.3-5.5c0-2-0.1-3.1-0.3-3.9c-0.3-0.8-0.4-2-0.4-4.3c0-4,0.6-9.8,1-10.2c0.2-0.2,0.3-0.7,0.3-1.1
	c0-0.4,0.2-1.2,0.3-1.8c0.2-0.6,0.3-1.8,0.2-3.3c-0.1-1.3-0.2-5.4-0.4-9.2c-0.1-3.8-0.3-8.1-0.4-9.8c-0.1-2.2,0-3.3,0.3-4.4
	c0.5-1.9,0.5-3.9,0-4.8c-0.4-0.8-1.8-2-2.3-2c-0.5,0-3.2-1.4-3.6-1.9c-0.4-0.5-0.6-2.4-0.3-2.9c0.2-0.3,0.8-0.4,2.7-0.4h2.5l0.2-2.1
	c0.3-2.8,0.3-3.1,0-8.5c-0.2-4.1-0.3-4.8-1-6.4c-0.4-1-1-2.2-1.3-2.7c-1-1.5-0.7-3.5,0.8-5.2c0.3-0.3,0.6-0.6,0.8-0.6
	c0.5,0,0.9-1.2,0.7-2.3c-0.1-0.5,0-1.5,0.2-2.3c0.2-0.8,0.3-1.7,0.2-1.9c-0.6-1.9-0.9-9.1-0.4-11.1c1.2-5.2,1.4-10.4,0.7-14.2
	c-0.3-1.3-0.4-3.3-0.4-6c0-7.2,0.3-18.6,0.6-19.5c0.1-0.5,0.2-2.2,0.2-3.7c0-3,0-3,1.5-3.9l0.8-0.5l-0.2-1.6c-0.1-1-0.5-2.4-1.2-3.8
	l-1-2.2l0-3.6c0-2,0.1-4.6,0.3-5.9c0.3-2.2,0.3-2.4-0.2-4c-1.2-3.9-1.3-5.3-0.7-8.4c0.2-1,0.4-2.4,0.4-3.1c0-2.5-0.2-5.4-0.5-5.9
	c-0.2-0.4-0.2-2.4-0.1-6.9c0.2-5.8,0.2-6.4,0.7-7.1c0.4-0.6,0.5-0.8,0.2-1.4c-0.2-0.5-0.2-0.9,0-1.6c0.3-1,0.7-7.5,0.8-13.9
	c0-3.6,0-4.6-0.4-5.7c-0.2-0.7-0.7-2.6-1.1-4.3c-0.4-1.7-0.9-3.5-1.2-4.2c-0.4-0.9-0.5-1.4-0.4-2.3c0.1-0.6,0.2-1.7,0.1-2.4
	c0-0.7,0.2-1.6,0.4-2.1c0.3-0.6,0.4-1.6,0.4-4.3c0-3.1,0.5-7.8,0.9-8.9c0.1-0.2,0.2-1.1,0.3-2c0.2-1.5,0.1-1.8-0.5-3.8
	c-0.4-1.2-0.8-2.3-0.9-2.4c-0.1-0.1-0.5-1-0.9-1.9c-0.4-0.9-0.9-1.9-1.1-2.1c-0.9-1-1.1-2.1-0.9-4.1l0.2-2l-0.9-0.9
	c-1.3-1.3-1.6-2-1.6-4.2c0-1.7,0.1-2.2,1-4c2-4.2,2.5-5.3,2.7-6.3c0.1-0.6,0.7-2.2,1.3-3.6c1.1-2.4,1.1-2.7,1-4.2
	c-0.1-0.9-0.3-1.9-0.4-2.2c-0.9-1.7-1.3-5-0.7-6.9c0.3-0.8,0.2-1.1-0.1-1.7c-0.6-1.1-0.5-1.6,0.6-2.9c1.3-1.5,1.4-2.3,0.8-3.7
	c-0.3-0.6-0.5-1.7-0.5-2.4c0-3.5,1.9-9.2,4-12c1.6-2.2,1.9-3.1,1.6-4.5c-0.2-0.6-0.5-1.4-0.7-1.8c-0.3-0.7-0.5-0.7-1.3-0.5
	c-0.5,0.1-1.8,0.2-2.9,0.3c-2.4,0.2-4-0.2-4.6-1.1c-0.6-0.9-0.3-2.5,0.6-3.5c1.3-1.3,2.6-3.5,2.6-4.3c0-0.4,0.2-1.4,0.4-2.1
	c0.2-0.8,0.4-2.3,0.5-3.4c0.1-1.1,0.2-2.5,0.4-3.1c0.3-1.2,0.8-9,0.8-12.6c0-1.2-0.1-2.7-0.3-3.4c-0.1-0.7-0.4-2-0.6-2.8
	c-0.3-1.5-0.3-1.7,0.4-4.3c0.4-1.5,0.9-3.5,1-4.5c0.2-1,0.7-3.3,1.1-5.2c0.4-1.9,0.9-3.8,1-4.3c0.3-1.3,0.9-2.1,1.7-2.3
	c1.4-0.3,34.1-0.5,36.6-0.2c2.1,0.2,2.6,0.2,4.4-0.2c1.7-0.4,2.9-0.5,8.5-0.5l6.4,0l1.2-0.7l1.2-0.7l28-0.2
	c15.4-0.1,29.2-0.2,30.7-0.2c1.5,0,4.5,0.1,6.5,0.3c3.7,0.3,3.8,0.3,5-0.2c1.6-0.7,2.7-0.6,3.8,0.6c1,1,2.1,1.3,4.2,1.1
	c3.8-0.5,3.9-0.5,4.7,0c0.8,0.4,0.9,0.4,2,0c0.7-0.3,1.6-0.7,2-0.9c0.7-0.4,1.4-0.5,7-0.5c5.8,0,6.3,0,7.1-0.5
	c0.8-0.5,1.3-0.5,11.7-0.5c10.5,0,10.9,0,11.5,0.5c0.6,0.5,1,0.5,19.7,0.5c18.4,0,19.1,0,20.4,0.5c1,0.4,1.9,0.5,4,0.5
	c1.5,0,3.4,0.2,4.4,0.4c3.4,0.7,7.5,0.4,9.5-0.9c0.5-0.3,1.3-0.5,2.1-0.5c0.8,0,1.4-0.2,1.9-0.5c0.5-0.4,1-0.5,3-0.5
	c2,0,2.5-0.1,3-0.5c0.6-0.5,1-0.5,4.4-0.5c3.3,0,3.8,0.1,4.4,0.5c0.4,0.3,0.9,0.5,1.2,0.5c0.3,0,0.8,0.3,1.1,0.6
	c0.5,0.6,0.6,0.6,3.3,0.5c2.5-0.1,2.8-0.1,3.4,0.4c0.4,0.3,0.9,0.6,1.2,0.7c0.3,0.1,0.7,0.3,0.8,0.5c0.3,0.3,1.9,0.4,10.9,0.4
	c9.9,0,10.6,0,11.4-0.5c0.6-0.3,1.5-0.5,3.4-0.6c3.1-0.2,3.9,0.1,5.1,1.6c0.4,0.5,1,1,1.3,1.1c0.3,0.1,0.8,0.6,1.1,1.1
	c0.3,0.5,1.2,1.7,2,2.5c1.4,1.6,2.7,4,2.7,5.2c0,0.3,0.2,0.9,0.5,1.3c0.3,0.4,0.7,1.4,1,2.3c1.3,4.2,2.6,6.7,4.3,8.3
	c1,1,1.3,1.4,1.3,2c0,0.9-0.8,2.3-1.4,2.6c-0.2,0.1-0.5,0.4-0.7,0.8c-0.3,0.7-0.6,6.8-0.8,14.6c-0.1,2.6-0.2,6.5-0.3,8.8
	c-0.2,2.7-0.2,4.2,0,4.3c0.4,0.2,1.2,1,1.2,1.4c0,0.8-0.7,1.3-2.7,1.6c-1.1,0.2-2.7,0.5-3.6,0.6c-1.4,0.3-1.7,0.3-2.5-0.1
	c-1-0.5-3-0.6-4.3-0.2c-2.3,0.7-3.9,0.8-17.6,0.8l-14.3,0 M309.4,839.8c0-3.5-0.1-6-0.2-6c-0.1-0.1-0.4-0.6-0.5-1.1
	c-0.3-0.9-0.3-1-1.2-1c-0.5,0-1.2-0.2-1.5-0.4c-0.4-0.3-1.3-0.4-4.7-0.3l-4.1,0.1l-0.1,0.7c-0.1,0.5,0.1,1,0.7,1.6
	c0.4,0.5,0.8,1,0.8,1.2s0.3,0.7,0.8,1.1s0.8,1,0.8,1.2c0,0.7,3,6.3,3.7,7c0.7,0.7,0.8,0.7,1.8,0.4c1.2-0.4,1.7-0.2,2,0.7
	c0.2,0.7,1.1,1.1,1.6,0.8C309.3,845.7,309.4,843,309.4,839.8z M10.9,833.9c1.2-0.8,2.4-1.7,2.7-2c0.3-0.3,0.9-0.6,1.3-0.7
	c0.3-0.1,1-0.4,1.4-0.7c0.4-0.3,1.2-0.8,1.6-1c1.6-0.8,4.8-3.3,4.9-3.8c0.2-0.8,0-1-1.8-1.6c-1.4-0.4-2.3-0.5-5.9-0.5
	c-3.9,0-4.3,0-4.5,0.5c-0.2,0.3-0.6,0.5-1.3,0.6l-1.1,0.1L8.2,830c-0.1,4.5,0,5.4,0.3,5.4C8.7,835.4,9.8,834.7,10.9,833.9z
	 M91.5,74.6c0-0.2,1.4-0.8,2.6-1.2c0.7-0.2,0.9-0.5,1.6-2c0.1-0.2,0.9-0.8,1.8-1.3c0.9-0.5,2.3-1.5,3.1-2c2-1.4,3.6-2.5,6-3.7
	c1.1-0.6,2.7-1.5,3.7-2.2s1.9-1.1,2.1-1.1c0.5,0,0.9-0.5,0.9-1.1c0-0.6,1.5-2.3,2.6-2.7c1.8-0.9,4.4-2,5-2.1
	c0.3-0.1,1.1-0.6,1.8-1.1s1.6-1.2,2.3-1.5c0.6-0.3,1.2-0.7,1.4-0.9c0.1-0.2,0.7-0.6,1.3-1s1.6-1.3,2.4-2.1c0.9-0.8,2.1-1.7,3.4-2.3
	c1.2-0.6,2.1-1.2,2.3-1.6c0.2-0.3,1-1,1.9-1.5c0.9-0.5,1.7-1.1,1.7-1.2c0.1-0.3-7.1-0.3-8.1,0c-1.1,0.3-5.4,1.2-6.8,1.4
	c-2,0.3-8.1,0.2-10.6-0.2c-2.7-0.4-22.8-0.6-23.1-0.3c-0.1,0.1-0.3,0.9-0.5,1.7c-0.1,0.8-0.6,2.3-1.1,3.3s-0.9,2.2-0.9,2.5
	c0,0.4-0.1,0.9-0.2,1.2c-0.1,0.3-0.1,0.7,0.2,1c0.6,0.7,0.7,6,0.2,7.6c-0.4,1.1-0.4,1.2,0.2,1.9c0.6,0.7,0.6,0.8,0.5,3.6
	c-0.1,1.5-0.2,3.9-0.4,5.2c-0.7,6.8-0.8,6.4,1.2,5C90.8,75.3,91.5,74.7,91.5,74.6z"/>
</svg>
